<svg width="58" height="58" viewBox="0 0 58 58" fill="none" xmlns="http://www.w3.org/2000/svg">
<g clip-path="url(#clip0_38_125)">
<path d="M46.324 58H1.56502C0.535024 58 -0.213976 57.022 0.0550239 56.027L10.221 28.156C10.405 27.474 11.024 27 11.731 27H56.49C57.52 27 58 27.984 58 28.973L47.834 56.844C47.65 57.526 47.031 58 46.324 58Z" fill="#49111C"/>
<path d="M50.268 18H48V27H52V19.732C52 18.775 51.224 18 50.268 18Z" fill="#49111C" fill-opacity="0.78"/>
<path d="M4 11H1.732C0.776 11 0 11.775 0 12.732V55.46C0.069 55.462 0.138 55.466 0.205 55.47L4 45.122V11Z" fill="#49111C" fill-opacity="0.78"/>
<path d="M10.221 28.156C10.405 27.474 11.024 27 11.731 27H13.731H48V15V0H33H10V28.761L10.221 28.156Z" fill="#F4EFDC"/>
<path d="M17 16H41C41.552 16 42 15.553 42 15C42 14.447 41.552 14 41 14H17C16.448 14 16 14.447 16 15C16 15.553 16.448 16 17 16Z" fill="#CEC9AE"/>
<path d="M17 9H27C27.552 9 28 8.553 28 8C28 7.447 27.552 7 27 7H17C16.448 7 16 7.447 16 8C16 8.553 16.448 9 17 9Z" fill="#CEC9AE"/>
<path d="M41 21H17C16.448 21 16 21.447 16 22C16 22.553 16.448 23 17 23H41C41.552 23 42 22.553 42 22C42 21.447 41.552 21 41 21Z" fill="#CEC9AE"/>
<path d="M10 28.761V2H7V36.986L10 28.761Z" fill="#CEC9AE"/>
<path d="M7 36.986V4H4V45.211L7 36.986Z" fill="#D1BF86"/>
</g>
<defs>
<clipPath id="clip0_38_125">
<rect width="58" height="58" fill="white"/>
</clipPath>
</defs>
</svg>
