<svg width="55" height="55" viewBox="0 0 55 55" fill="none" xmlns="http://www.w3.org/2000/svg">
<path d="M44.8079 5.25293H43.7336V35.4406H44.8079V5.25293Z" fill="#E4EBED"/>
<path d="M45.6672 14.5557V35.8789C45.6643 35.9918 45.6199 36.0996 45.5426 36.1818L34.8369 46.8875C34.7963 46.9278 34.748 46.9597 34.6948 46.9811C34.6417 47.0025 34.5848 47.013 34.5276 47.0121H11.1569L11.8594 50.9932C11.9312 51.3927 12.1408 51.7544 12.4517 52.0154C12.7625 52.2764 13.155 52.4202 13.561 52.4219C13.6633 52.4216 13.7654 52.4122 13.866 52.3939L49.6504 45.8971C50.1029 45.8164 50.505 45.5597 50.7688 45.1832C51.0325 44.8068 51.1364 44.3411 51.0576 43.8883L45.8799 14.5363L45.6672 14.5557Z" fill="#49111C"/>
<path d="M34.9636 45.5404L44.2019 36.3021H34.9636V45.5404Z" fill="#EFFAFE"/>
<path d="M51.0576 43.8883L45.8798 14.5363L45.665 14.5557V19.4176L49.9812 43.8861C50.0599 44.339 49.9561 44.8046 49.6923 45.1811C49.4286 45.5575 49.0265 45.8142 48.574 45.8949L13.0603 52.3402C13.2225 52.3899 13.3912 52.4152 13.5609 52.4154C13.6632 52.4151 13.7653 52.4058 13.866 52.3875L49.6503 45.8971C50.1029 45.8164 50.505 45.5597 50.7687 45.1832C51.0324 44.8068 51.1363 44.3411 51.0576 43.8883Z" fill="#49111C"/>
<path d="M43.1277 36.3021L34.9636 44.4662V45.5404L44.2019 36.3021H43.1277Z" fill="#E4EBED"/>
<path d="M5.65042 47.1152H9.12014L9.83128 51.1564C9.94128 51.7811 10.2677 52.3472 10.7532 52.7553C11.2387 53.1635 11.8524 53.3877 12.4867 53.3887C12.6459 53.3889 12.8048 53.3753 12.9616 53.3479L49.818 46.8488C50.5229 46.7236 51.1494 46.324 51.5601 45.7376C51.9709 45.1513 52.1325 44.426 52.0094 43.7207L45.7746 8.37891V4.82324C45.7746 4.68079 45.7181 4.54418 45.6173 4.44345C45.5166 4.34272 45.38 4.28613 45.2375 4.28613H14.1668C14.0401 3.53849 13.6528 2.85985 13.0736 2.37048C12.4943 1.88112 11.7605 1.61265 11.0022 1.61265C10.2439 1.61265 9.51006 1.88112 8.93079 2.37048C8.35152 2.85985 7.96422 3.53849 7.83753 4.28613H5.65042C4.93435 4.2867 4.24778 4.57141 3.74144 5.07775C3.23511 5.58408 2.9504 6.27065 2.94983 6.98672V44.4146C2.9504 45.1307 3.23511 45.8173 3.74144 46.3236C4.24778 46.83 4.93435 47.1147 5.65042 47.1152ZM45.6114 36.2527C45.707 36.1515 45.7614 36.0182 45.7639 35.8789V14.5557L50.9395 43.9076C51.0138 44.3326 50.9164 44.7698 50.6686 45.1231C50.4209 45.4763 50.0431 45.7168 49.6182 45.7918L12.7746 52.2887C12.5643 52.3258 12.3487 52.3211 12.1402 52.2749C11.9317 52.2287 11.7343 52.1418 11.5593 52.0193C11.3844 51.8968 11.2353 51.7411 11.1205 51.561C11.0057 51.3808 10.9276 51.1799 10.8905 50.9695L10.2115 47.1152H34.5319C34.6744 47.1153 34.8111 47.0589 34.9121 46.9584L45.6114 36.2527ZM35.0625 45.2762V36.4031H43.9356L35.0625 45.2762ZM11.0022 2.68555C11.4762 2.68851 11.9359 2.84815 12.3097 3.13959C12.6835 3.43103 12.9505 3.83792 13.069 4.29688H8.93323C9.05182 3.83756 9.31908 3.43041 9.69334 3.13894C10.0676 2.84746 10.5278 2.68804 11.0022 2.68555ZM4.02405 6.98242C4.02857 6.55387 4.20185 6.14438 4.5063 5.84274C4.81075 5.5411 5.22184 5.37164 5.65042 5.37109H7.79885V10.1771C7.76652 10.619 7.82564 11.0628 7.97251 11.4807C8.11938 11.8987 8.35085 12.2819 8.65247 12.6064C8.95408 12.9309 9.31936 13.1897 9.7255 13.3667C10.1316 13.5437 10.5699 13.635 11.0129 13.635C11.4559 13.635 11.8942 13.5437 12.3003 13.3667C12.7065 13.1897 13.0718 12.9309 13.3734 12.6064C13.675 12.2819 13.9065 11.8987 14.0533 11.4807C14.2002 11.0628 14.2593 10.619 14.227 10.1771V7.50234C14.227 7.35989 14.1704 7.22328 14.0697 7.12255C13.9689 7.02182 13.8323 6.96524 13.6899 6.96524C13.5474 6.96524 13.4108 7.02182 13.3101 7.12255C13.2093 7.22328 13.1528 7.35989 13.1528 7.50234V10.1771C13.1794 10.4743 13.1439 10.7737 13.0485 11.0563C12.9531 11.339 12.7998 11.5987 12.5985 11.8188C12.3972 12.039 12.1523 12.2148 11.8793 12.3351C11.6063 12.4554 11.3112 12.5176 11.0129 12.5176C10.7146 12.5176 10.4195 12.4554 10.1466 12.3351C9.87357 12.2148 9.62862 12.039 9.42732 11.8188C9.22602 11.5987 9.07278 11.339 8.97736 11.0563C8.88193 10.7737 8.84642 10.4743 8.87307 10.1771V5.37109H44.7004V35.3354H34.534C34.3916 35.3354 34.2549 35.3919 34.1542 35.4927C34.0535 35.5934 33.9969 35.73 33.9969 35.8725V46.041H5.65042C5.21925 46.0405 4.80591 45.8689 4.50103 45.564C4.19615 45.2592 4.02462 44.8458 4.02405 44.4146V6.98242Z" fill="#263238"/>
<path d="M12.6758 17.6881H40.3391C40.4815 17.6881 40.6181 17.6315 40.7189 17.5308C40.8196 17.43 40.8762 17.2934 40.8762 17.151C40.8762 17.0085 40.8196 16.8719 40.7189 16.7712C40.6181 16.6705 40.4815 16.6139 40.3391 16.6139H12.6758C12.5333 16.6139 12.3967 16.6705 12.296 16.7712C12.1953 16.8719 12.1387 17.0085 12.1387 17.151C12.1387 17.2934 12.1953 17.43 12.296 17.5308C12.3967 17.6315 12.5333 17.6881 12.6758 17.6881Z" fill="#263238"/>
<path d="M8.37891 21.985H40.3391C40.4815 21.985 40.6181 21.9284 40.7189 21.8276C40.8196 21.7269 40.8762 21.5903 40.8762 21.4479C40.8762 21.3054 40.8196 21.1688 40.7189 21.0681C40.6181 20.9673 40.4815 20.9107 40.3391 20.9107H8.37891C8.23646 20.9107 8.09984 20.9673 7.99911 21.0681C7.89838 21.1688 7.8418 21.3054 7.8418 21.4479C7.8418 21.5903 7.89838 21.7269 7.99911 21.8276C8.09984 21.9284 8.23646 21.985 8.37891 21.985Z" fill="#263238"/>
<path d="M8.37891 26.2818H40.3391C40.4815 26.2818 40.6181 26.2252 40.7189 26.1245C40.8196 26.0238 40.8762 25.8872 40.8762 25.7447C40.8762 25.6023 40.8196 25.4657 40.7189 25.3649C40.6181 25.2642 40.4815 25.2076 40.3391 25.2076H8.37891C8.23646 25.2076 8.09984 25.2642 7.99911 25.3649C7.89838 25.4657 7.8418 25.6023 7.8418 25.7447C7.8418 25.8872 7.89838 26.0238 7.99911 26.1245C8.09984 26.2252 8.23646 26.2818 8.37891 26.2818Z" fill="#263238"/>
<path d="M8.37891 30.5787H40.3391C40.4815 30.5787 40.6181 30.5221 40.7189 30.4214C40.8196 30.3207 40.8762 30.1841 40.8762 30.0416C40.8762 29.8992 40.8196 29.7625 40.7189 29.6618C40.6181 29.5611 40.4815 29.5045 40.3391 29.5045H8.37891C8.23646 29.5045 8.09984 29.5611 7.99911 29.6618C7.89838 29.7625 7.8418 29.8992 7.8418 30.0416C7.8418 30.1841 7.89838 30.3207 7.99911 30.4214C8.09984 30.5221 8.23646 30.5787 8.37891 30.5787Z" fill="#263238"/>
<path d="M8.37891 34.8756H30.2285C30.371 34.8756 30.5076 34.819 30.6083 34.7183C30.709 34.6175 30.7656 34.4809 30.7656 34.3385C30.7656 34.196 30.709 34.0594 30.6083 33.9587C30.5076 33.858 30.371 33.8014 30.2285 33.8014H8.37891C8.23646 33.8014 8.09984 33.858 7.99911 33.9587C7.89839 34.0594 7.8418 34.196 7.8418 34.3385C7.8418 34.4809 7.89839 34.6175 7.99911 34.7183C8.09984 34.819 8.23646 34.8756 8.37891 34.8756Z" fill="#263238"/>
<path d="M8.37891 39.1725H30.2285C30.371 39.1725 30.5076 39.1159 30.6083 39.0151C30.709 38.9144 30.7656 38.7778 30.7656 38.6354C30.7656 38.4929 30.709 38.3563 30.6083 38.2556C30.5076 38.1548 30.371 38.0982 30.2285 38.0982H8.37891C8.23646 38.0982 8.09984 38.1548 7.99911 38.2556C7.89838 38.3563 7.8418 38.4929 7.8418 38.6354C7.8418 38.7778 7.89838 38.9144 7.99911 39.0151C8.09984 39.1159 8.23646 39.1725 8.37891 39.1725Z" fill="#263238"/>
<path d="M8.37891 43.4693H30.2285C30.371 43.4693 30.5076 43.4127 30.6083 43.312C30.709 43.2113 30.7656 43.0747 30.7656 42.9322C30.7656 42.7898 30.709 42.6532 30.6083 42.5524C30.5076 42.4517 30.371 42.3951 30.2285 42.3951H8.37891C8.23646 42.3951 8.09984 42.4517 7.99911 42.5524C7.89838 42.6532 7.8418 42.7898 7.8418 42.9322C7.8418 43.0747 7.89838 43.2113 7.99911 43.312C8.09984 43.4127 8.23646 43.4693 8.37891 43.4693Z" fill="#263238"/>
<path d="M6.27991 49.6289H5.42053V48.7695C5.42053 48.7126 5.3979 48.6579 5.35761 48.6176C5.31732 48.5773 5.26267 48.5547 5.20569 48.5547C5.14871 48.5547 5.09406 48.5773 5.05377 48.6176C5.01348 48.6579 4.99084 48.7126 4.99084 48.7695V49.6289H4.13147C4.07449 49.6289 4.01984 49.6515 3.97955 49.6918C3.93926 49.7321 3.91663 49.7868 3.91663 49.8438C3.91663 49.9007 3.93926 49.9554 3.97955 49.9957C4.01984 50.036 4.07449 50.0586 4.13147 50.0586H4.99084V50.918C4.99084 50.9749 5.01348 51.0296 5.05377 51.0699C5.09406 51.1102 5.14871 51.1328 5.20569 51.1328C5.26267 51.1328 5.31732 51.1102 5.35761 51.0699C5.3979 51.0296 5.42053 50.9749 5.42053 50.918V50.0586H6.27991C6.33689 50.0586 6.39153 50.036 6.43182 49.9957C6.47212 49.9554 6.49475 49.9007 6.49475 49.8438C6.49475 49.7868 6.47212 49.7321 6.43182 49.6918C6.39153 49.6515 6.33689 49.6289 6.27991 49.6289Z" fill="#FFDD00"/>
<path d="M51.7773 21.7701H50.918V20.9107C50.918 20.8538 50.8953 20.7991 50.855 20.7588C50.8148 20.7185 50.7601 20.6959 50.7031 20.6959C50.6461 20.6959 50.5915 20.7185 50.5512 20.7588C50.5109 20.7991 50.4883 20.8538 50.4883 20.9107V21.7701H49.6289C49.5719 21.7701 49.5173 21.7928 49.477 21.833C49.4367 21.8733 49.4141 21.928 49.4141 21.985C49.4141 22.0419 49.4367 22.0966 49.477 22.1369C49.5173 22.1772 49.5719 22.1998 49.6289 22.1998H50.4883V23.0592C50.4883 23.1162 50.5109 23.1708 50.5512 23.2111C50.5915 23.2514 50.6461 23.274 50.7031 23.274C50.7601 23.274 50.8148 23.2514 50.855 23.2111C50.8953 23.1708 50.918 23.1162 50.918 23.0592V22.1998H51.7773C51.8343 22.1998 51.889 22.1772 51.9293 22.1369C51.9696 22.0966 51.9922 22.0419 51.9922 21.985C51.9922 21.928 51.9696 21.8733 51.9293 21.833C51.889 21.7928 51.8343 21.7701 51.7773 21.7701Z" fill="#40BDFF"/>
<path d="M49.9791 51.5818C49.7242 51.5818 49.4749 51.5062 49.263 51.3646C49.051 51.2229 48.8858 51.0216 48.7882 50.7861C48.6906 50.5505 48.6651 50.2913 48.7148 50.0413C48.7646 49.7912 48.8873 49.5615 49.0676 49.3813C49.2479 49.201 49.4776 49.0782 49.7276 49.0285C49.9777 48.9787 50.2369 49.0043 50.4724 49.1018C50.708 49.1994 50.9093 49.3646 51.0509 49.5766C51.1926 49.7886 51.2682 50.0378 51.2682 50.2928C51.2682 50.6347 51.1324 50.9625 50.8906 51.2043C50.6489 51.446 50.321 51.5818 49.9791 51.5818ZM49.9791 49.4334C49.8092 49.4334 49.643 49.4838 49.5017 49.5782C49.3604 49.6727 49.2502 49.8069 49.1852 49.9639C49.1201 50.1209 49.1031 50.2937 49.1363 50.4604C49.1694 50.6271 49.2513 50.7803 49.3715 50.9004C49.4916 51.0206 49.6448 51.1025 49.8115 51.1356C49.9782 51.1688 50.151 51.1518 50.308 51.0867C50.465 51.0217 50.5992 50.9115 50.6937 50.7702C50.7881 50.6289 50.8385 50.4627 50.8385 50.2928C50.8385 50.0649 50.748 49.8463 50.5868 49.6851C50.4256 49.5239 50.207 49.4334 49.9791 49.4334Z" fill="#FFDD00"/>
<path d="M49.7643 7.14571C49.5093 7.14571 49.2601 7.0701 49.0481 6.92846C48.8361 6.78682 48.6709 6.58549 48.5733 6.34995C48.4758 6.1144 48.4503 5.85521 48.5 5.60516C48.5497 5.35511 48.6725 5.12542 48.8528 4.94514C49.0331 4.76486 49.2627 4.64209 49.5128 4.59235C49.7629 4.54261 50.022 4.56814 50.2576 4.66571C50.4931 4.76327 50.6945 4.92849 50.8361 5.14048C50.9777 5.35246 51.0533 5.60169 51.0533 5.85664C51.0533 6.19853 50.9175 6.5264 50.6758 6.76815C50.434 7.0099 50.1062 7.14571 49.7643 7.14571ZM49.7643 4.99727C49.5943 4.99727 49.4282 5.04767 49.2868 5.1421C49.1455 5.23653 49.0354 5.37075 48.9703 5.52778C48.9053 5.68481 48.8883 5.8576 48.9214 6.0243C48.9546 6.191 49.0364 6.34413 49.1566 6.46431C49.2768 6.5845 49.4299 6.66635 49.5966 6.69951C49.7633 6.73267 49.9361 6.71565 50.0932 6.6506C50.2502 6.58556 50.3844 6.47541 50.4788 6.33409C50.5733 6.19276 50.6237 6.02661 50.6237 5.85664C50.6237 5.62872 50.5331 5.41014 50.372 5.24897C50.2108 5.08781 49.9922 4.99727 49.7643 4.99727Z" fill="#FFDD00"/>
</svg>
